<?xml version="1.0" encoding="UTF-8"?>
<!DOCTYPE svg PUBLIC "-//W3C//DTD SVG 1.1//EN" "http://www.w3.org/Graphics/SVG/1.1/DTD/svg11.dtd">
<!-- Creator: CorelDRAW -->
<svg xmlns="http://www.w3.org/2000/svg" xml:space="preserve" width="262px" height="37px" version="1.1" style="shape-rendering:geometricPrecision; text-rendering:geometricPrecision; image-rendering:optimizeQuality; fill-rule:evenodd; clip-rule:evenodd"
viewBox="0 0 262 37"
 xmlns:xlink="http://www.w3.org/1999/xlink"
 xmlns:xodm="http://www.corel.com/coreldraw/odm/2003">
 <defs>
  <style type="text/css">
   <![CDATA[
    .fil2 {fill:#727376}
    .fil3 {fill:#6666CC}
    .fil0 {fill:#373435;fill-rule:nonzero}
    .fil1 {fill:#6666CC;fill-rule:nonzero}
   ]]>
  </style>
 </defs>
 <g id="Capa_x0020_1">
  <metadata id="CorelCorpID_0Corel-Layer"/>
  <g id="_2189532347824">
   <path class="fil0" d="M41.11 9.86l7.73 0 0 26.05 7.42 0 0 -26.05 7.74 0 0 -6.51 -22.89 0 0 6.51zm29.16 -6.71c-2.29,0 -4.14,1.86 -4.14,4.15 0,2.29 1.85,4.14 4.14,4.14 2.29,0 4.14,-1.85 4.14,-4.14 0,-2.29 -1.85,-4.15 -4.14,-4.15zm-3.59 12.51l6.98 0 0 20.25 -6.98 0 0 -20.25zm32.4 11.09c0.04,-0.24 0.04,-0.67 0.04,-0.95 0,-7.1 -4.7,-10.73 -10.86,-10.73 -6.11,0 -11.12,4.82 -11.12,10.73 0,5.88 5.01,10.7 11.12,10.7 4.5,0 8.21,-1.46 10.5,-5.29l-5.05 -2.52c-1.7,1.81 -2.68,2.24 -4.93,2.24 -1.78,0 -4.38,-1.06 -4.38,-4.18l14.68 0zm-14.49 -3.86c0.12,-1.86 1.46,-3.28 3.87,-3.28 2.05,0 3.51,1.14 3.83,3.28l-7.7 0zm17.72 13.02l6.99 0 0 -11.45c0,-2.01 2.05,-3.94 4.14,-3.94 2.25,0 3.63,1.93 3.63,3.94l0 11.45 6.99 0 0 -13.34c0,-5.64 -5.17,-7.5 -8.88,-7.5 -2.21,0 -4.23,1.15 -5.8,2.72l-0.08 0 0 -2.13 -6.99 0 0 20.25zm24.63 -10.11c0,5.92 4.14,10.7 10.06,10.7 2.76,0 5.13,-1.23 6.63,-2.88l0.08 0 0 2.29 6.9 0 0 -33.94 -6.98 0 0 15.63c-1.66,-1.62 -3.91,-2.53 -6.63,-2.53 -5.92,0 -10.06,4.82 -10.06,10.73zm7.42 0c0,-2.8 2.09,-4.77 4.73,-4.77 2.6,0 4.7,1.97 4.7,4.77 0,2.77 -1.98,4.74 -4.7,4.74 -2.84,0 -4.73,-1.97 -4.73,-4.74zm19.53 0c0,5.92 4.14,10.7 10.06,10.7 2.76,0 5.13,-1.23 6.63,-2.88l0.08 0 0 2.29 6.91 0 0 -20.25 -6.99 0 0 1.94c-1.66,-1.62 -3.91,-2.53 -6.63,-2.53 -5.92,0 -10.06,4.82 -10.06,10.73zm7.42 0c0,-2.8 2.09,-4.77 4.73,-4.77 2.61,0 4.7,1.97 4.7,4.77 0,2.77 -1.97,4.74 -4.7,4.74 -2.84,0 -4.73,-1.97 -4.73,-4.74z"/>
   <path class="fil1" d="M181.32 3.35l0 32.56 7.42 0 0 -12.08 4.46 0c6.35,0 11.13,-3.75 11.13,-10.46 0,-6.74 -4.78,-10.02 -11.13,-10.02l-11.88 0zm7.42 14.56l0 -8.64 2.09 0c2.92,0 5.69,0.99 5.69,4.34 0,3.32 -2.77,4.3 -5.69,4.3l-2.09 0zm18.87 18l6.98 0 0 -33.94 -6.98 0 0 33.94zm18.31 -20.25l-6.99 0 0 11.33c0,6.79 3.39,9.51 10.97,9.51 7.58,0 10.97,-2.72 10.97,-9.51l0 -11.33 -6.98 0 0 9.63c0,3.99 -1.07,5.53 -3.99,5.53 -2.92,0 -3.98,-1.54 -3.98,-5.53l0 -9.63zm27.93 -0.59c-5.32,0 -8.84,2.37 -8.84,6.51 0,3.04 2.06,4.46 4.11,5.53 2.29,1.18 4.5,1.3 4.5,2.76 0,1.34 -1.19,1.46 -2.17,1.46 -2.25,0 -5.01,-2.33 -5.01,-2.33l-2.85 4.78c0,0 2.92,2.72 7.82,2.72 4.14,0 9.59,-0.95 9.59,-6.91 0,-4.14 -3.48,-5.64 -6.16,-6.47 -1.73,-0.55 -3.16,-0.87 -3.16,-1.93 0,-0.95 0.63,-1.23 2.17,-1.23 2.14,0 4.5,1.27 4.5,1.27l2.29 -4.58c0,0 -2.88,-1.58 -6.79,-1.58z"/>
   <circle class="fil2" cx="5.39" cy="8.01" r="4.39"/>
   <circle class="fil2" cx="16.62" cy="8.01" r="4.39"/>
   <circle class="fil2" cx="27.85" cy="8.01" r="4.39"/>
   <circle class="fil3" cx="5.39" cy="19.78" r="4.39"/>
   <circle class="fil2" cx="16.62" cy="19.78" r="4.39"/>
   <circle class="fil3" cx="27.85" cy="19.78" r="4.39"/>
   <circle class="fil3" cx="5.39" cy="31.56" r="4.39"/>
   <circle class="fil2" cx="16.62" cy="31.56" r="4.39"/>
   <circle class="fil3" cx="27.85" cy="31.56" r="4.39"/>
  </g>
 </g>
</svg>
