<?xml version="1.0" encoding="utf-8"?>
<!-- Generator: Adobe Illustrator 26.3.1, SVG Export Plug-In . SVG Version: 6.00 Build 0)  -->
<svg version="1.1" id="Capa_1" xmlns="http://www.w3.org/2000/svg" xmlns:xlink="http://www.w3.org/1999/xlink" x="0px" y="0px"
	 viewBox="0 0 48 48" style="enable-background:new 0 0 48 48;" xml:space="preserve">
<style type="text/css">
	.st0{fill-rule:evenodd;clip-rule:evenodd;fill:#FFFFFF;}
	.st1{fill-rule:evenodd;clip-rule:evenodd;fill:#ED1163;}
	.st2{fill-rule:evenodd;clip-rule:evenodd;fill:#653494;}
</style>
<ellipse transform="matrix(0.9732 -0.2298 0.2298 0.9732 -4.872 6.1562)" class="st0" cx="24" cy="24" rx="24" ry="24"/>
<path class="st1" d="M24,1.75c6.14,0,11.71,2.47,15.74,6.5c4.03,4.03,6.5,9.6,6.5,15.74c0,6.14-2.47,11.71-6.5,15.74
	c-4.03,4.03-9.6,6.5-15.74,6.5c-6.14,0-11.71-2.47-15.74-6.5c-4.03-4.03-6.5-9.6-6.5-15.74c0-6.14,2.47-11.71,6.5-15.74
	C12.29,4.22,17.86,1.75,24,1.75L24,1.75z M37.27,10.73C33.86,7.34,29.18,5.26,24,5.26s-9.86,2.09-13.27,5.47
	C7.34,14.14,5.26,18.82,5.26,24s2.09,9.86,5.47,13.27c3.41,3.38,8.09,5.47,13.27,5.47s9.86-2.09,13.27-5.47
	c3.38-3.41,5.47-8.09,5.47-13.27S40.66,14.14,37.27,10.73z"/>
<polygon class="st2" points="20.09,10.44 28.03,10.44 28.03,20.04 37.63,20.04 37.63,27.98 28.03,27.98 28.03,37.61 20.09,37.61 
	20.09,27.98 10.46,27.98 10.46,20.04 20.09,20.04 "/>
</svg>
